<svg width="128" height="128" viewBox="0 0 128 128" fill="none" xmlns="http://www.w3.org/2000/svg">
<path d="M58 3.4641C61.7128 1.32051 66.2872 1.32051 70 3.4641L113.426 28.5359C117.138 30.6795 119.426 34.641 119.426 38.9282V89.0718C119.426 93.359 117.138 97.3205 113.426 99.4641L70 124.536C66.2872 126.679 61.7128 126.679 58 124.536L14.5744 99.4641C10.8616 97.3205 8.57438 93.359 8.57438 89.0718V38.9282C8.57438 34.641 10.8616 30.6795 14.5744 28.5359L58 3.4641Z" fill="#1A1A1A"/>
<path d="M39.4815 56.8536L51.6069 49.853L63.7323 56.8536V70.8548L51.6069 77.8554L39.4815 70.8548V56.8536Z" stroke="white"/>
<path d="M26.7822 49.5L39.4077 56.7893" stroke="white"/>
<path d="M76 49.5L87.9998 57" stroke="white"/>
<line x1="63.75" y1="56.8563" x2="76.3754" y2="49.567" stroke="white"/>
<path d="M27 77.9998L39.6254 70.7105" stroke="white"/>
<line x1="87.75" y1="56.8563" x2="100.375" y2="49.567" stroke="white"/>
<line x1="41.7773" y1="69.1025" x2="41.7773" y2="58.3143" stroke="white"/>
<line x1="60.7002" y1="58.0184" x2="51.3574" y2="52.6243" stroke="white"/>
<line x1="61.2002" y1="69.8271" x2="51.8574" y2="75.2211" stroke="white"/>
</svg>
